<svg class="asa-icon" viewBox="0 0 1024 1024" xmlns="http://www.w3.org/2000/svg" width="16" height="16"><path d="M514.844444 617.244444c-19.911111 0-31.288889-8.533333-31.288888-28.444444v-199.111111c0-19.911111 8.533333-28.444444 28.444444-28.444445s28.444444 8.533333 28.444444 28.444445v199.111111c0 14.222222-5.688889 28.444444-25.6 28.444444z m0 142.222223c-25.6 0-45.511111-19.911111-45.511111-45.511111 0-25.6 19.911111-45.511111 45.511111-45.511112 25.6 0 45.511111 19.911111 45.511112 45.511112 0 25.6-19.911111 45.511111-45.511112 45.511111z m472.177778 170.666666H31.288889c-11.377778 0-19.911111-5.688889-25.6-19.911111-5.688889-14.222222-5.688889-19.911111 0-31.288889L426.666667 133.688889c11.377778-22.755556 31.288889-51.2 42.666666-65.422222 25.6-34.133333 56.888889-28.444444 76.8-8.533334 14.222222 14.222222 31.288889 42.666667 51.2 73.955556l420.977778 736.711111c5.688889 5.688889 5.688889 14.222222 5.688889 19.911111-5.688889 28.444444-19.911111 39.822222-36.977778 39.822222zM509.155556 116.622222L85.333333 876.088889h853.333334L509.155556 116.622222z" fill="currentColor"></path></svg>