<svg class="asa-icon" viewBox="0 0 1024 1024" xmlns="http://www.w3.org/2000/svg" width="16" height="16"><path d="M673.33 468.52h125.6v63.31h-125.6zM449.71 468.52h127.64v63.31H449.71zM673.33 597.18h125.6v62.29h-125.6zM449.71 597.18h127.64v62.29H449.71zM673.33 722.77h125.6v65.35h-125.6zM225.08 722.77h128.66v65.35H225.08z" fill="currentColor"></path><path d="M899.12 121h-91.38v128.4c0 14.55-13.72 25.32-29.94 25.95s-29.94-12.35-29.94-25.97V121H276.14v128.17c0 14.51-13.72 25.26-29.94 25.89s-29.94-12.35-29.94-25.89V121h-91.38A59.88 59.88 0 0 0 65 180.86v689.82a59.88 59.88 0 0 0 59.88 59.88h774.24A59.88 59.88 0 0 0 959 870.68V180.86A59.88 59.88 0 0 0 899.12 121z m3.33 739.54a14.22 14.22 0 0 1-13.94 14h-753a14.22 14.22 0 0 1-14-14V368.25h780.9z" fill="currentColor"></path><path d="M449.71 722.77h127.64v65.35H449.71zM225.08 468.52h128.66v63.31H225.08zM225.08 597.18h128.66v62.29H225.08z" fill="currentColor"></path><path d="M246.2 255.51m-44.91 0a44.91 44.91 0 1 0 89.82 0 44.91 44.91 0 1 0-89.82 0Z" fill="#FFFFFF"></path><path d="M777.8 255.51m-44.91 0a44.91 44.91 0 1 0 89.82 0 44.91 44.91 0 1 0-89.82 0Z" fill="#FFFFFF"></path><path d="M270.2 243.14V93.44c0-12.55-11-24.58-24-24s-24 10.55-24 24v149.7c0 12.56 11 24.58 24 24s24-10.54 24-24zM801.8 243.14V93.44c0-12.55-11-24.58-24-24s-24 10.55-24 24v149.7c0 12.56 11 24.58 24 24s24-10.54 24-24z" fill="currentColor"></path></svg>