<svg class="asa-icon" viewBox="0 0 1024 1024" width="16" height="16"><path d="M173.568 732.416c-13.056 0-26.24-4.992-36.224-14.976-19.968-19.968-19.968-52.352 0-72.448l338.432-338.432c19.968-19.968 52.352-19.968 72.448 0s19.968 52.352 0 72.448L209.792 717.44c-9.984 9.984-23.168 14.976-36.224 14.976z" fill="currentColor"></path><path d="M850.432 732.416c-13.056 0-26.24-4.992-36.224-14.976L475.776 379.008c-19.968-19.968-19.968-52.352 0-72.448 19.968-19.968 52.352-19.968 72.448 0l338.432 338.432c19.968 19.968 19.968 52.352 0 72.448-9.984 9.984-23.168 14.976-36.224 14.976z" fill="currentColor"></path></svg>