<svg class="asa-icon" viewBox="0 0 1024 1024" version="1.1" xmlns="http://www.w3.org/2000/svg" width="16" height="16"><path d="M192.322534 900.884089a324.74586 38.704104 0 1 0 649.491721 0 324.74586 38.704104 0 1 0-649.491721 0Z" fill="#EDF3F7"></path><path d="M800.529878 783.850252c-15.850252 0-28.75162-12.901368-28.75162-28.75162s12.901368-28.75162 28.75162-28.75162 28.75162 12.901368 28.751619 28.75162c0.184305 15.850252-12.717063 28.75162-28.751619 28.75162z m0-14.37581c7.925126 0 14.37581-6.450684 14.37581-14.37581s-6.450684-14.37581-14.37581-14.37581-14.37581 6.450684-14.37581 14.37581 6.450684 14.37581 14.37581 14.37581z m87.544996-164.584593V595.305976c0-2.580274-2.211663-4.791937-4.791937-4.791937-2.580274 0-4.791937 2.027358-4.791936 4.791937v9.768178H868.722822c-2.580274 0-4.791937 2.211663-4.791936 4.791937 0 2.580274 2.027358 4.791937 4.791936 4.791936h9.768179v9.768179c0 2.580274 2.211663 4.791937 4.791936 4.791937 2.580274 0 4.791937-2.027358 4.791937-4.791937v-9.768179h9.768179c2.580274 0 4.791937-2.211663 4.791936-4.791936 0-2.580274-2.027358-4.791937-4.791936-4.791937h-9.768179z m-100.63067-314.056156h14.37581c4.054716 0 7.37221 3.133189 7.372211 7.187905s-3.317495 7.187905-7.372211 7.187905h-14.37581v14.37581c0 4.054716-3.133189 7.37221-7.187905 7.37221s-7.187905-3.317495-7.187904-7.37221v-14.37581h-14.37581c-4.054716 0-7.187905-3.133189-7.372211-7.187905 0-4.054716 3.317495-7.187905 7.372211-7.187905h14.37581V276.457883c0-4.054716 3.133189-7.37221 7.187904-7.37221s7.187905 3.317495 7.187905 7.37221v14.37581zM320.783297 217.480202c-15.850252 0-28.75162-12.901368-28.75162-28.75162s12.901368-28.75162 28.75162-28.75162 28.75162 12.901368 28.75162 28.75162-12.901368 28.75162-28.75162 28.75162z m0-14.37581c7.925126 0 14.37581-6.450684 14.37581-14.37581s-6.450684-14.37581-14.37581-14.37581-14.37581 6.450684-14.37581 14.37581 6.450684 14.37581 14.37581 14.37581zM240.794816 444.359971h9.768179c2.580274 0 4.791937 2.211663 4.791937 4.791937 0 2.580274-2.027358 4.791937-4.791937 4.791936h-9.768179v9.768179c0 2.580274-2.211663 4.791937-4.791936 4.791937-2.580274 0-4.791937-2.027358-4.791937-4.607632v-9.768178h-9.768178c-2.580274 0-4.791937-2.211663-4.791937-4.791937 0-2.580274 2.027358-4.791937 4.791937-4.791937H231.026638v-9.768178c0-2.580274 2.211663-4.791937 4.791937-4.791937 2.580274 0 4.791937 2.027358 4.791936 4.791937v9.583873z" fill="#2CA0FF"></path><path d="M604.060475 60.267819l-84.227502 84.227501 84.227502 84.227502 84.227502-84.227502-84.227502-84.227501z m-45.892008 84.227501l46.076313-46.076314 46.076314 46.076314-46.076314 46.076314-46.076313-46.076314z" fill="#E2EEFF"></path><path d="M171.311735 590.514039l-48.472282 48.472282L171.311735 687.458603l48.472282-48.472282-48.472282-48.472282z m-26.539957 48.472282l26.539957-26.539957L197.851692 638.986321 171.311735 665.341973l-26.539957-26.355652z" fill="#E2EEFF"></path><path d="M585.077034 337.831533H363.357811c-13.269978 0-23.959683 10.87401-23.959683 23.959684v413.028077c0 13.085673 10.689705 23.959683 23.959683 23.959684h297.284378c13.269978 0 23.959683-10.87401 23.959683-23.959684V441.964003l-99.524838-104.13247z" fill="#F5F9FC"></path><path d="M587.473002 439.568035l-0.184305-95.838733c0-1.290137 1.474442-1.843053 2.395968-0.921527l90.493881 95.838733c0.921526 0.921526 0.184305 2.395968-0.921527 2.395969h-90.309575c-0.921526 0-1.474442-0.737221-1.474442-1.474442z" fill="#F5F9FC" p-id="2728"></path><path d="M382.341253 711.233981h261.160547v16.956084H382.341253zM382.341253 655.942405h261.160547v16.956083H382.341253zM382.341253 600.466523h261.160547v16.956083H382.341253zM382.341253 474.217423h112.057595v16.956083h-112.057595zM382.341253 418.925846h112.057595v16.956083h-112.057595z" fill="#0080FF"></path></svg>