<svg
    class="asa-icon"
    viewBox="0 0 1320 1024"
    xmlns="http://www.w3.org/2000/svg"
    width="16"
    height="16"
>
    <path
        d="M652.084441 755.012703a250.232782 250.232782 0 1 1 250.232781-250.232782 250.849118 250.849118 0 0 1-250.232781 250.232782zM1304.168881 505.396258a514.641312 514.641312 0 0 0-30.200508-89.985187 666.260189 666.260189 0 0 0-89.368851-156.549573A593.532435 593.532435 0 0 0 986.139041 97.38123 735.906259 735.906259 0 0 0 652.084441 24.653476a735.289922 735.289922 0 0 0-332.821927 72.727754A597.230456 597.230456 0 0 0 119.569359 258.861498 668.725537 668.725537 0 0 0 30.200508 416.027408 507.861606 507.861606 0 0 0 0 505.396258a513.408638 513.408638 0 0 0 30.200508 90.601525 669.958211 669.958211 0 0 0 89.368851 156.549572 593.532435 593.532435 0 0 0 199.693155 161.480268 739.60428 739.60428 0 0 0 332.821927 72.111418A735.906259 735.906259 0 0 0 986.139041 914.64396a596.61412 596.61412 0 0 0 199.693155-161.480268 666.260189 666.260189 0 0 0 89.368851-157.165909 514.641312 514.641312 0 0 0 30.200508-89.985188zM652.084441 357.475402a147.304519 147.304519 0 1 0 104.160936 43.143583 146.071845 146.071845 0 0 0-104.160936-43.143583z"
        fill="currentColor"
    ></path>
    <path
        d="M77.767032 61.621593m43.5816-43.5816l0 0q43.5816-43.5816 87.1632 0l888.628828 888.628827q43.5816 43.5816 0 87.163201l0 0q-43.5816 43.5816-87.163201 0l-888.628827-888.628828q-43.5816-43.5816 0-87.1632Z"
        fill="currentColor"
    ></path>
</svg>