<svg class="asa-icon" viewBox="0 0 1024 1024" version="1.1" xmlns="http://www.w3.org/2000/svg" width="16" height="16"><path d="M511.944649 0C229.154595 0.027676 0 229.265297 0 512 0 794.762378 229.237622 1024 512 1024S1024 794.762378 1024 512v0.055351C1024 229.292973 794.762378 0.055351 512 0.055351L511.944649 0z m0 955.807135C266.793514 951.48973 71.624649 749.291243 75.942054 504.195459 80.121081 265.160649 272.882162 72.399568 511.944649 68.192865c245.095784 4.317405 440.32 206.515892 436.002594 451.611676-4.206703 239.034811-196.967784 431.795892-436.002594 436.002594z m221.931243-409.710703h-221.958919v-221.875891a17.158919 17.158919 0 0 0-16.992865-17.075892h-34.179459a17.158919 17.158919 0 0 0-17.020541 17.075892v273.048216a17.158919 17.158919 0 0 0 17.020541 17.103567h273.048216a17.158919 17.158919 0 0 0 17.158919-17.103567V563.2a17.020541 17.020541 0 0 0-17.158919-17.075892h0.083027z" fill="currentColor"></path></svg>