<svg t="1668925810042" class="asa-icon" viewBox="0 0 1311 1024" version="1.1" xmlns="http://www.w3.org/2000/svg" width="16" height="16"><path d="M1167.444311 375.086876a257.885817 257.885817 0 0 0-53.273209-23.701142 378.565942 378.565942 0 0 0-108.720833-241.36025c-5.436042-5.653483-11.089525-11.089525-16.743009-16.308125s-9.349992-8.045342-14.35115-11.959292l-29.789508-21.744167A360.735726 360.735726 0 0 0 745.172593 0a385.958959 385.958959 0 0 0-304.418334 152.209167L434.883334 150.904517l-13.0465-5.870925-7.8279-2.826742a118.070825 118.070825 0 0 0-13.263941-3.91395l-7.8279-1.956975c-4.783717 0-9.784875-1.956975-14.568592-2.6093a38.052292 38.052292 0 0 0-7.175575-1.087208 140.9022 140.9022 0 0 0-21.744167-1.30465 197.00215 197.00215 0 0 0-195.6975 195.6975v8.262784A302.461359 302.461359 0 0 0 0 593.615751a281.152076 281.152076 0 0 0 281.152076 280.717193h188.304483a190.261459 190.261459 0 0 1-11.74185-24.136026c-2.391858-6.088367-4.566275-12.394175-6.52325-18.699983a1.956975 1.956975 0 0 1 0-1.087208h-170.039383A237.011417 237.011417 0 0 1 43.488333 593.615751 258.538142 258.538142 0 0 1 184.390534 369.650834l12.611616-6.088367v-13.698825-16.525566a45.445308 45.445308 0 0 1 0-5.436042 152.209167 152.209167 0 0 1 173.953334-152.209167h5.2186a122.202217 122.202217 0 0 1 17.177892 3.91395h2.391858c5.870925 2.174417 12.176733 4.348833 18.2651 6.958133a27.832533 27.832533 0 0 1 4.348834 2.391859 97.196425 97.196425 0 0 1 15.438358 8.697666 152.209167 152.209167 0 0 1 70.016217 128.290584 21.744167 21.744167 0 1 0 43.488333 0 195.6975 195.6975 0 0 0-70.016217-150.03475A347.906667 347.906667 0 0 1 745.172593 43.488333a317.682276 317.682276 0 0 1 179.606817 55.882509 97.84875 97.84875 0 0 1 9.784875 6.740692l9.567434 7.610458a278.890682 278.890682 0 0 1 37.399966 34.573225 333.338076 333.338076 0 0 1 86.976667 198.959125c-10.872083 0-24.78835-1.522092-39.791825-1.30465-7.8279 0-16.525567 0-25.005792 1.087209l-18.482541 1.956975h-6.088367a21.744167 21.744167 0 0 0-18.2651 25.005791 21.744167 21.744167 0 0 0 21.744167 18.482542 9.567433 9.567433 0 0 0 3.261625 0 420.314743 420.314743 0 0 1 102.197583 0 223.964917 223.964917 0 0 1 178.302167 218.528876 218.963759 218.963759 0 0 1-217.87655 219.398642h-181.128909v1.087208c-1.956975 6.305808-4.131392 12.611617-6.52325 18.699983a225.052125 225.052125 0 0 1-12.829058 24.136026h199.61145a263.321859 263.321859 0 0 0 263.104417-262.886976 269.410226 269.410226 0 0 0-143.294058-236.359092z m-534.036735 500.115834h51.533675v-43.488333h-51.533675z" fill="currentColor"></path><path d="M659.065693 514.901868a254.841634 254.841634 0 0 0-254.40675 254.624192 258.320701 258.320701 0 0 0 3.696508 43.488333l4.566275 17.612775 5.001158 19.787192a193.305642 193.305642 0 0 0 9.784875 24.136025 253.971867 253.971867 0 0 0 462.93331 0 193.305642 193.305642 0 0 0 9.784875-24.136025l5.001158-19.787192 4.348833-17.612775a237.228859 237.228859 0 0 0 3.91395-43.488333 255.059076 255.059076 0 0 0-254.624192-254.624192z m208.091676 316.595067c-1.956975 6.305808-4.131392 12.611617-6.52325 18.699983a225.052125 225.052125 0 0 1-12.611617 24.136026 217.441667 217.441667 0 0 1-379.435709 0 190.261459 190.261459 0 0 1-11.74185-24.136026c-2.391858-6.088367-4.566275-12.394175-6.52325-18.699983a1.956975 1.956975 0 0 1 0-1.087208 173.953334 173.953334 0 0 1-4.348834-17.612775 219.616084 219.616084 0 0 1-4.348833-43.488334 217.441667 217.441667 0 1 1 434.883334 0 204.395167 204.395167 0 0 1-4.566275 43.488334 171.996359 171.996359 0 0 1-4.131391 17.612775s-0.652325 0.652325-0.652325 1.087208z" fill="currentColor"></path><path d="M737.562135 816.710902H684.941251v78.279h-51.533675v-78.279h-52.620883l78.496442-164.820784 78.279 164.820784z" fill="currentColor"></path></svg>