<svg class="asa-icon" viewBox="0 0 1024 1024" version="1.1" xmlns="http://www.w3.org/2000/svg" width="16" height="16"><path d="M544 864v-192h128L512 480l-160 192h128v192H304c-68.032-1.984-124.544-25.536-169.472-70.464-44.992-45.056-68.48-101.504-70.528-169.536 1.344-62.72 21.824-115.84 61.504-159.488 39.68-43.648 90.176-69.504 151.488-77.504 12.032-57.984 39.488-104.64 82.496-139.968C402.496 211.712 453.312 193.28 512 192c58.688 1.344 109.504 19.712 152.512 55.04 43.008 35.328 70.528 81.92 82.496 139.968 61.312 8 111.808 33.856 151.488 77.504 39.68 43.648 60.16 96.832 61.504 159.488-1.984 68.032-25.536 124.48-70.464 169.536-45.056 44.992-101.504 68.48-169.536 70.464H544z" fill="currentColor"></path></svg>